<svg width="128" height="128" viewBox="0 0 128 128" fill="none" xmlns="http://www.w3.org/2000/svg">
<rect x="16" y="124" width="108" height="4" fill="black"/>
<rect x="16" y="120" width="112" height="4" fill="#7F7F7F"/>
<rect x="124" y="92" width="4" height="28" fill="#7F7F7F"/>
<rect x="120" y="92" width="4" height="28" fill="white"/>
<rect x="20" y="88" width="104" height="4" fill="#7F7F7F"/>
<rect x="28" y="100" width="40" height="4" fill="#7F7F7F"/>
<rect x="68" y="100" width="44" height="4" fill="#C0C0C0"/>
<rect x="68" y="104" width="32" height="4" fill="#C0C0C0"/>
<rect x="100" y="104" width="12" height="4" fill="#00FF00"/>
<rect x="100" y="108" width="12" height="4" fill="#008000"/>
<rect x="40" y="108" width="4" height="4" fill="#7F7F7F"/>
<rect x="20" y="96" width="100" height="4" fill="#C0C0C0"/>
<rect x="20" y="92" width="100" height="4" fill="white"/>
<rect x="20" y="100" width="8" height="20" fill="#C0C0C0"/>
<rect x="16" y="92" width="4" height="28" fill="#7F7F7F"/>
<rect x="12" y="88" width="4" height="32" fill="#7F7F7F"/>
<rect x="12" y="120" width="4" height="4" fill="black"/>
<rect x="8" y="116" width="4" height="4" fill="black"/>
<rect x="4" y="112" width="4" height="4" fill="black"/>
<rect x="16" y="88" width="4" height="4" fill="#C0C0C0"/>
<rect x="16" y="84" width="8" height="4" fill="#7F7F7F"/>
<rect x="24" y="84" width="92" height="4" fill="black"/>
<rect x="24" y="80" width="92" height="4" fill="#7F7F7F"/>
<rect x="24" y="12" width="4" height="68" fill="#7F7F7F"/>
<rect x="24" y="8" width="4" height="4" fill="white"/>
<rect x="28" y="8" width="76" height="4" fill="#C0C0C0"/>
<rect x="28" y="12" width="80" height="4" fill="white"/>
<rect x="28" y="16" width="80" height="4" fill="#C0C0C0"/>
<rect x="28" y="20" width="4" height="60" fill="#C0C0C0"/>
<rect x="32" y="76" width="76" height="4" fill="#C0C0C0"/>
<rect x="104" y="20" width="4" height="56" fill="#C0C0C0"/>
<rect x="32" y="72" width="72" height="4" fill="white"/>
<rect x="32" y="20" width="4" height="52" fill="white"/>
<rect x="36" y="20" width="4" height="48" fill="#7F7F7F"/>
<rect x="104" y="72" width="68" height="4" transform="rotate(180 104 72)" fill="#7F7F7F"/>
<rect x="104" y="72" width="4" height="48" transform="rotate(180 104 72)" fill="#7F7F7F"/>
<rect x="40" y="20" width="64" height="4" fill="#7F7F7F"/>
<rect x="40" y="24" width="60" height="4" fill="black"/>
<rect x="20" y="8" width="4" height="72" fill="#7F7F7F"/>
<rect x="20" y="4" width="4" height="4" fill="white"/>
<rect x="24" y="4" width="76" height="4" fill="#C0C0C0"/>
<rect x="16" width="4" height="76" fill="#7F7F7F"/>
<rect x="12" y="4" width="4" height="72" fill="black"/>
<rect x="20" width="80" height="4" fill="#7F7F7F"/>
<rect x="104" y="8" width="4" height="4" transform="rotate(180 104 8)" fill="#7F7F7F"/>
<rect x="108" y="12" width="4" height="4" transform="rotate(180 108 12)" fill="#7F7F7F"/>
<rect x="112" y="16" width="4" height="4" transform="rotate(180 112 16)" fill="#7F7F7F"/>
<rect x="116" y="80" width="4" height="64" transform="rotate(180 116 80)" fill="#7F7F7F"/>
<rect x="112" y="80" width="4" height="64" transform="rotate(180 112 80)" fill="white"/>
<rect x="12" y="84" width="4" height="4" fill="#C0C0C0"/>
<rect x="12" y="80" width="8" height="4" fill="#7F7F7F"/>
<rect x="20" y="80" width="4" height="4" fill="black"/>
<rect x="16" y="76" width="4" height="4" fill="black"/>
<rect x="8" y="80" width="4" height="4" fill="#C0C0C0"/>
<rect y="80" width="4" height="32" fill="black"/>
<rect x="8" y="84" width="4" height="32" fill="#7F7F7F"/>
<rect x="4" y="76" width="4" height="36" fill="#7F7F7F"/>
<rect x="8" y="76" width="8" height="4" fill="#7F7F7F"/>
<rect x="28" y="108" width="12" height="12" fill="#C0C0C0"/>
<rect x="40" y="112" width="80" height="8" fill="#C0C0C0"/>
<rect x="44" y="108" width="56" height="4" fill="#C0C0C0"/>
<rect x="112" y="100" width="8" height="12" fill="#C0C0C0"/>
<rect x="28" y="104" width="40" height="4" fill="black"/>
<rect width="60" height="40" transform="translate(40.0073 28)" fill="black"/>
<rect width="4" height="44" transform="translate(100.008 24)" fill="#7F7F7F"/>
<rect width="68" height="4" transform="translate(36 68)" fill="#7F7F7F"/>
<rect width="4" height="12" transform="translate(44.0068 32)" fill="#7F7F7F"/>
<rect x="40" y="48" width="16" height="4" fill="#68FF4C"/>
<rect x="84" y="48" width="16" height="4" fill="#68FF4C"/>
<rect x="56" y="44" width="4" height="4" fill="#68FF4C"/>
<rect x="60" y="36" width="4" height="8" fill="#68FF4C"/>
<rect x="64" y="28" width="4" height="8" fill="#68FF4C"/>
<rect x="68" y="36" width="4" height="8" fill="#68FF4C"/>
<rect x="76" y="56" width="4" height="8" fill="#68FF4C"/>
<rect x="80" y="52" width="4" height="4" fill="#68FF4C"/>
<rect x="72" y="44" width="4" height="12" fill="#68FF4C"/>
</svg>
