<svg width="1182" height="495" viewBox="0 0 1182 495" fill="none" xmlns="http://www.w3.org/2000/svg">
<path opacity="0.35" d="M1070.48 468.03V494.7H963.801V468.03H937.131V441.36H910.461V361.35H937.131V281.34H963.801V254.67H1017.14V228H1123.82V254.67H1177.16V281.34H1150.49V308.01H1123.82V254.67H1017.14V281.34H990.471V308.01H963.801V441.36H990.471V468.03H1070.48ZM1123.82 441.36V468.03H1097.15V441.36H1123.82Z" fill="#68FF4C"/>
<path opacity="0.35" d="M830.6 388.02V494.7H750.59V468.03H777.26V414.69H803.93V361.35H830.6V281.34H857.27V254.67H830.6V228H910.61V254.67H883.94V308.01H857.27V388.02H830.6Z" fill="#68FF4C"/>
<path opacity="0.35" d="M777.438 228V254.67H724.098V228H777.438ZM564.078 334.68H537.408V281.34H564.078V254.67H537.408V228H590.748V254.67H617.418V308.01H644.088V388.02H670.758V414.69H697.428V468.03H644.088V414.69H617.418V361.35H590.748V308.01H564.078V334.68ZM724.098 308.01V281.34H750.768V308.01H724.098ZM724.098 334.68V388.02H697.428V334.68H724.098ZM510.738 414.69V361.35H537.408V414.69H510.738V494.7H457.398V468.03H484.068V414.69H510.738Z" fill="#68FF4C"/>
<path opacity="0.35" d="M350.643 414.692H243.963V441.362H217.293V494.702H163.953V468.032H190.623V441.362H217.293V414.692H243.963V388.022H350.643V308.012H323.973V334.682H297.303V308.012H323.973V281.342H350.643V254.672H377.313V281.342H403.983V494.702H350.643V414.692Z" fill="#68FF4C"/>
<path opacity="0.35" d="M110.524 361.35H83.8538V441.36H57.1838V468.03H83.8538V494.7H3.84375V468.03H30.5138V414.69H57.1838V361.35H83.8538V281.34H110.524V254.67H83.8538V228H243.874V254.67H270.544V334.68H243.874V361.35H190.534V334.68H217.204V254.67H137.194V308.01H110.524V361.35Z" fill="#68FF4C"/>
<path opacity="0.35" d="M1130.78 196.003H994.072V176.473H1013.6V137.413H1033.13V78.8231H1052.66V39.7631H1072.19V20.2331H1052.66V0.703125H1111.25V20.2331H1091.72V59.2931H1072.19V98.3531H1052.66V156.943H1033.13V176.473H1130.78V196.003ZM1169.84 137.413H1150.31V117.883H1169.84V137.413ZM1150.31 156.943V176.473H1130.78V156.943H1150.31Z" fill="#68FF4C"/>
<path opacity="0.35" d="M857.396 176.473H955.046V196.003H818.336V176.473H837.866V137.413H857.396V78.8231H876.926V0.703125H1013.64V59.2931H994.106V20.2331H915.986V39.7631H896.456V98.3531H876.926V156.943H857.396V176.473ZM935.516 117.883V98.3531H915.986V78.8231H955.046V117.883H935.516ZM994.106 137.413H974.576V117.883H994.106V137.413ZM974.576 156.943V176.473H955.046V156.943H974.576Z" fill="#68FF4C"/>
<path opacity="0.35" d="M837.997 0.703125V20.2331H798.937V0.703125H837.997ZM681.757 78.8231H662.227V39.7631H681.757V20.2331H662.227V0.703125H701.287V20.2331H720.817V59.2931H740.347V117.883H759.877V137.413H779.407V176.473H740.347V137.413H720.817V98.3531H701.287V59.2931H681.757V78.8231ZM798.937 59.2931V39.7631H818.467V59.2931H798.937ZM798.937 78.8231V117.883H779.407V78.8231H798.937ZM642.697 137.413V98.3531H662.227V137.413H642.697V196.003H603.637V176.473H623.167V137.413H642.697Z" fill="#68FF4C"/>
<path opacity="0.35" d="M564.521 78.8231V98.3531H544.991V78.8231H564.521V20.2331H505.931V59.2931H486.401V117.883H466.871V156.943H447.341V176.473H466.871V196.003H408.281V176.473H427.811V137.413H447.341V98.3531H466.871V39.7631H486.401V20.2331H466.871V0.703125H584.051V20.2331H603.581V59.2931H584.051V78.8231H564.521ZM525.461 98.3531H544.991V117.883H564.521V176.473H584.051V196.003H544.991V176.473H525.461V98.3531Z" fill="#68FF4C"/>
<path opacity="0.35" d="M271.605 176.473H369.255V196.003H232.545V176.473H252.075V137.413H271.605V78.8231H291.135V0.703125H427.845V59.2931H408.315V20.2331H330.195V39.7631H310.665V98.3531H291.135V156.943H271.605V176.473ZM349.725 117.883V98.3531H330.195V78.8231H369.255V117.883H349.725ZM408.315 137.413H388.785V117.883H408.315V137.413ZM388.785 156.943V176.473H369.255V156.943H388.785Z" fill="#68FF4C"/>
<path opacity="0.35" d="M17.6602 196.003V176.473H56.7202V137.413H76.2502V78.8231H95.7802V0.703125H154.37V20.2331H134.84V59.2931H115.31V98.3531H95.7802V156.943H76.2502V196.003H17.6602ZM232.49 20.2331V39.7631H212.96V0.703125H271.55V20.2331H232.49ZM173.9 59.2931V39.7631H193.43V59.2931H173.9V78.8231H154.37V98.3531H173.9V156.943H193.43V176.473H212.96V196.003H154.37V137.413H134.84V78.8231H154.37V59.2931H173.9Z" fill="#68FF4C"/>
<path d="M978.956 448.808V460.008H911.756V448.808H889.356V437.608H878.156V426.408H866.956V404.008H855.756V336.808H866.956V303.208H878.156V292.008H889.356V280.808H900.556V269.608H911.756V258.408H922.956V247.208H945.356V236.008H1023.76V247.208H1034.96V258.408H1046.16V269.608H1057.36V247.208H1079.76V258.408H1068.56V292.008H1057.36V325.608H1046.16V292.008H1034.96V269.608H1023.76V258.408H1012.56V247.208H967.756V258.408H945.356V269.608H934.156V280.808H922.956V292.008H911.756V314.408H900.556V348.008H889.356V404.008H900.556V426.408H911.756V437.608H934.156V448.808H978.956ZM1001.36 448.808H978.956V437.608H1001.36V426.408H1012.56V415.208H1023.76V426.408H1012.56V437.608H1001.36V448.808Z" fill="#68FF4C"/>
<path d="M788.42 426.408H777.22V437.608H788.42V448.808H799.62V460.008H710.02V448.808H732.42V437.608H743.62V426.408H754.82V404.008H766.02V370.408H777.22V336.808H788.42V314.408H799.62V280.808H810.82V247.208H788.42V236.008H878.02V247.208H855.62V258.408H844.42V280.808H833.22V314.408H822.02V336.808H810.82V370.408H799.62V392.808H788.42V426.408Z" fill="#68FF4C"/>
<path d="M553.107 448.808V460.008H474.707V448.808H508.307V426.408H519.507V404.008H530.707V370.408H541.907V348.008H553.107V314.408H564.307V292.008H575.507V258.408H564.307V236.008H609.107V269.608H620.307V292.008H631.507V314.408H642.707V336.808H653.907V359.208H665.107V381.608H676.307V392.808H665.107V404.008H676.307V392.808H687.507V359.208H698.707V325.608H709.907V303.208H721.107V269.608H732.307V258.408H721.107V247.208H709.907V236.008H777.107V247.208H754.707V258.408H743.507V280.808H732.307V314.408H721.107V348.008H709.907V370.408H698.707V404.008H687.507V437.608H676.307V460.008H665.107V437.608H653.907V415.208H642.707V392.808H631.507V370.408H620.307V348.008H609.107V325.608H597.907V303.208H575.507V325.608H564.307V359.208H553.107V381.608H541.907V415.208H530.707V448.808H553.107Z" fill="#68FF4C"/>
<path d="M418.645 392.805H429.845V381.605H329.045V392.805H317.845V415.205H306.645V426.405H295.445V448.805H317.845V460.005H250.645V448.805H261.845V437.605H284.245V415.205H295.445V404.005H306.645V392.805H317.845V370.405H329.045V359.205H340.245V348.005H351.445V325.605H362.645V314.405H373.845V303.205H385.045V280.805H396.245V269.605H407.445V258.405H418.645V247.205H429.845V224.805H441.045V359.205H452.245V448.805H474.645V460.005H396.245V448.805H418.645V392.805ZM351.445 370.405H418.645V336.805H407.445V292.005H396.245V303.205H385.045V325.605H373.845V336.805H362.645V348.005H351.445V370.405Z" fill="#68FF4C"/>
<path d="M183.631 359.208V381.608H172.431V404.008H161.231V448.808H183.631V460.008H94.0312V448.808H116.431V437.608H127.631V415.208H138.831V381.608H150.031V348.008H161.231V325.608H172.431V292.008H183.631V247.208H172.431V236.008H295.631V247.208H318.031V269.608H329.231V303.208H318.031V325.608H306.831V336.808H295.631V348.008H262.031V359.208H183.631ZM194.831 348.008H250.831V336.808H273.231V325.608H284.431V303.208H295.631V269.608H284.431V258.408H273.231V247.208H217.231V292.008H206.031V314.408H194.831V348.008Z" fill="#68FF4C"/>
<path d="M1045.74 164.023V188.005H909.846V180.011H933.828V172.017H941.822V148.035H949.816V132.047H957.81V108.065H965.804V84.083H973.798V68.095H981.792V36.119H965.804V28.125H1037.75V36.119H1013.77V44.113H1005.77V60.101H997.78V84.083H989.786V108.065H981.792V124.053H973.798V148.035H965.804V164.023H957.81V172.017H949.816V180.011H1013.77V172.017H1029.76V164.023H1037.75V156.029H1045.74V148.035H1053.74V132.047H1061.73V148.035H1053.74V164.023H1045.74Z" fill="#68FF4C"/>
<path d="M813.944 172.017H805.95V180.011H869.902V172.017H885.89V164.023H893.884V156.029H901.878V140.041H909.872V132.047H917.866V148.035H909.872V164.023H901.878V180.011H893.884V188.005H765.98V180.011H781.968V172.017H789.962V164.023H797.956V148.035H805.95V124.053H813.944V100.071H821.938V84.083H829.932V60.101H837.926V36.119H821.938V28.125H949.842V44.113H941.848V68.095H933.854V84.083H925.86V44.113H917.866V36.119H853.914V44.113H861.908V60.101H853.914V76.089H845.92V100.071H877.896V92.077H885.89V84.083H893.884V76.089H901.878V84.083H893.884V108.065H885.89V132.047H877.896V140.041H869.902V132.047H877.896V116.059H869.902V108.065H837.926V124.053H829.932V140.041H821.938V164.023H813.944V172.017Z" fill="#68FF4C"/>
<path d="M653.985 180.011V188.005H598.027V180.011H622.009V164.023H630.003V148.035H637.997V124.053H645.991V108.065H653.985V84.083H661.979V68.095H669.973V44.113H661.979V28.125H693.955V52.107H701.949V68.095H709.943V84.083H717.937V100.071H725.931V116.059H733.925V132.047H741.919V140.041H733.925V148.035H741.919V140.041H749.913V116.059H757.907V92.077H765.901V76.089H773.895V52.107H781.889V44.113H773.895V36.119H765.901V28.125H813.865V36.119H797.877V44.113H789.883V60.101H781.889V84.083H773.895V108.065H765.901V124.053H757.907V148.035H749.913V172.017H741.919V188.005H733.925V172.017H725.931V156.029H717.937V140.041H709.943V124.053H701.949V108.065H693.955V92.077H685.961V76.089H669.973V92.077H661.979V116.059H653.985V132.047H645.991V156.029H637.997V180.011H653.985Z" fill="#68FF4C"/>
<path d="M510.048 180.011V188.005H446.096V180.011H462.084V172.017H470.078V148.035H478.072V132.047H486.066V108.065H494.06V92.077H502.054V68.095H510.048V36.119H494.06V28.125H581.994V36.119H597.982V44.113H605.976V84.083H597.982V92.077H589.988V100.071H581.994V108.065H566.006V116.059H574V148.035H581.994V180.011H589.988V188.005H558.012V148.035H550.018V116.059H542.024V108.065H502.054V116.059H510.048V124.053H502.054V148.035H494.06V180.011H510.048ZM518.042 100.071H566.006V92.077H574V84.083H581.994V44.113H574V36.119H534.03V68.095H526.036V84.083H518.042V100.071ZM605.976 172.017V180.011H597.982V172.017H605.976Z" fill="#68FF4C"/>
<path d="M342.2 172.017H334.206V180.011H398.158V172.017H414.146V164.023H422.14V156.029H430.134V140.041H438.128V132.047H446.122V148.035H438.128V164.023H430.134V180.011H422.14V188.005H294.236V180.011H310.224V172.017H318.218V164.023H326.212V148.035H334.206V124.053H342.2V100.071H350.194V84.083H358.188V60.101H366.182V36.119H350.194V28.125H478.098V44.113H470.104V68.095H462.11V84.083H454.116V44.113H446.122V36.119H382.17V44.113H390.164V60.101H382.17V76.089H374.176V100.071H406.152V92.077H414.146V84.083H422.14V76.089H430.134V84.083H422.14V108.065H414.146V132.047H406.152V140.041H398.158V132.047H406.152V116.059H398.158V108.065H366.182V124.053H358.188V140.041H350.194V164.023H342.2V172.017Z" fill="#68FF4C"/>
<path d="M134.312 188.005V180.011H150.3V172.017H158.294V164.023H166.288V148.035H174.283V124.053H182.276V100.071H190.271V84.083H198.264V60.101H206.258V36.119H190.271V28.125H254.222V36.119H238.235V44.113H230.241V60.101H222.247V76.089H214.252V100.071H206.258V108.065H222.247V100.071H230.241V92.077H238.235V84.083H254.222V76.089H262.216V68.095H270.211V60.101H286.199V52.107H294.193V36.119H286.199V28.125H342.157V36.119H326.169V44.113H310.181V52.107H302.187V60.101H286.199V68.095H278.204V76.089H270.211V84.083H254.222V92.077H246.229V100.071H254.222V124.053H262.216V140.041H270.211V164.023H278.204V180.011H294.193V188.005H254.222V180.011H246.229V156.029H238.235V132.047H230.241V108.065H222.247V116.059H214.252V124.053H198.264V140.041H190.271V164.023H182.276V180.011H198.264V188.005H134.312Z" fill="#68FF4C"/>
</svg>
